<svg xmlns="http://www.w3.org/2000/svg" xmlns:xlink="http://www.w3.org/1999/xlink" version="1.1" x="0px" y="0px" viewBox="0 0 100 125" style="enable-background:new 0 0 100 100;" xml:space="preserve"><path d="M52,93.7h-5.2c-14.6,0-26.5-11.9-26.5-26.5V32.9c0-14.6,11.9-26.5,26.5-26.5H52c14.6,0,26.5,11.9,26.5,26.5v34.3  C78.5,81.8,66.6,93.7,52,93.7z M46.8,11.4C35,11.4,25.3,21,25.3,32.9v34.3c0,11.9,9.7,21.5,21.5,21.5H52c11.9,0,21.5-9.7,21.5-21.5  V32.9c0-11.9-9.7-21.5-21.5-21.5H46.8z"/><path d="M61.8,52.7L61.8,52.7c-0.9-1-2.5-1-3.5,0l-6.4,7V34.3c0-1.4-1.1-2.5-2.5-2.5s-2.5,1.1-2.5,2.5v25.5l-6.4-7  c-0.9-1-2.5-1-3.5,0l0,0c-0.8,0.9-0.8,2.3,0,3.2l10.6,11.7c0.9,1,2.5,1,3.5,0l10.7-11.7C62.6,55,62.6,53.6,61.8,52.7z"/><text x="0" y="115" fill="#000000" font-size="5px" font-weight="bold" font-family="'Helvetica Neue', Helvetica, Arial-Unicode, Arial, Sans-serif">Created by Brian Larson</text><text x="0" y="120" fill="#000000" font-size="5px" font-weight="bold" font-family="'Helvetica Neue', Helvetica, Arial-Unicode, Arial, Sans-serif">from the Noun Project</text></svg>