<?xml version="1.0" encoding="iso-8859-1"?>
<!-- Uploaded to: SVG Repo, www.svgrepo.com, Generator: SVG Repo Mixer Tools -->
<svg height="800px" width="800px" version="1.1" id="Layer_1" xmlns="http://www.w3.org/2000/svg" xmlns:xlink="http://www.w3.org/1999/xlink" 
	 viewBox="0 0 496.158 496.158" xml:space="preserve">
<path style="fill:#48A1AF;" d="M496.158,248.085c0-137.021-111.07-248.082-248.076-248.082C111.07,0.002,0,111.062,0,248.085
	c0,137.002,111.07,248.071,248.083,248.071C385.088,496.155,496.158,385.086,496.158,248.085z"/>
<g>
	<path style="fill:#FFFFFF;" d="M288.037,236.937l-149.525-91.812c-4.082-2.506-9.453-2.615-13.632-0.275
		c-4.255,2.379-6.897,6.887-6.897,11.762v182.901c0,4.867,2.634,9.369,6.877,11.754c2.011,1.129,4.294,1.727,6.603,1.727
		c2.475,0,4.899-0.682,7.011-1.969l149.523-91.088c3.98-2.424,6.459-6.826,6.467-11.489
		C294.47,243.787,292.008,239.375,288.037,236.937z"/>
	<path style="fill:#FFFFFF;" d="M369.593,139.057h-51.507c-4.741,0-8.584,3.844-8.584,8.584v200.877c0,4.74,3.843,8.584,8.584,8.584
		h51.507c4.74,0,8.583-3.844,8.583-8.584V147.64C378.176,142.9,374.333,139.057,369.593,139.057z"/>
</g>
</svg>